<?xml version="1.0" standalone="no"?>
<!DOCTYPE svg PUBLIC "-//W3C//DTD SVG 20010904//EN"
 "http://www.w3.org/TR/2001/REC-SVG-20010904/DTD/svg10.dtd">
<svg version="1.0" xmlns="http://www.w3.org/2000/svg"
 width="219.000000pt" height="219.000000pt" viewBox="0 0 219.000000 219.000000"
 preserveAspectRatio="xMidYMid meet">
<metadata>
Created by potrace 1.14, written by Peter Selinger 2001-2017
</metadata>
<g transform="translate(0.000000,219.000000) scale(0.100000,-0.100000)"
fill="#000000" stroke="none">
<path d="M706 1908 c-8 -5 -12 -54 -11 -183 0 -97 -4 -179 -9 -182 -5 -3 -142
-6 -305 -7 -219 -1 -302 -4 -318 -14 -51 -29 -53 -44 -53 -426 0 -234 4 -363
11 -379 25 -54 41 -57 368 -57 l301 0 0 440 0 440 324 0 c179 0 335 -4 348 -9
33 -12 394 -370 403 -399 18 -58 2 -81 -198 -280 -108 -108 -202 -193 -213
-193 -10 -1 -163 -2 -339 -3 l-320 -1 -1 -175 c0 -96 2 -181 4 -188 6 -19 667
-16 777 4 445 79 726 418 702 849 -3 55 -8 111 -11 125 -3 14 -8 38 -12 54
-11 50 -61 162 -98 221 -124 193 -373 337 -628 361 -96 9 -706 11 -722 2z"/>
<path d="M1331 1169 c-42 -42 -43 -95 -2 -141 24 -27 36 -33 68 -32 54 2 82
19 99 61 20 46 10 86 -28 118 -43 37 -97 34 -137 -6z"/>
</g>
</svg>
